<svg version="1.0" xmlns="http://www.w3.org/2000/svg" width="600.000000pt" height="500.000000pt" viewBox="0 0 600.000000 500.000000" preserveAspectRatio="xMidYMid meet"> <metadata> Created by potrace 1.16, written by Peter Selinger 2001-2019 </metadata> <g transform="translate(0.000000,500.000000) scale(0.100000,-0.100000)" fill="white" stroke="none"> <path d="M1414 4753 c9 -9 -114 -54 -127 -46 -5 3 -7 1 -3 -5 3 -6 -11 -21 -31 -33 -21 -13 -44 -29 -51 -36 -7 -7 -21 -18 -31 -25 -32 -24 -104 -122 -129 -178 -56 -125 -55 -113 -59 -707 l-4 -553 -157 0 -156 0 -50 53 c-27 28 -49 56 -47 60 1 5 -3 6 -8 2 -6 -3 -27 2 -48 11 -24 10 -66 17 -113 17 -62 0 -84 -4 -125 -26 -65 -34 -88 -54 -117 -102 -73 -118 -41 -307 64 -384 78 -57 157 -71 274 -47 37 7 101 53 135 96 l32 40 158 0 158 0 4 -697 c4 -769 1 -735 68 -873 45 -91 160 -204 256 -251 40 -20 69 -40 65 -44 -4 -5 -1 -5 5 -1 15 8 85 -3 79 -13 -2 -3 19 -6 47 -6 29 0 184 -1 345 -3 l292 -2 0 -375 c0 -318 2 -381 15 -405 9 -17 13 -30 9 -30 -4 0 -1 -7 6 -15 7 -8 16 -13 20 -10 4 3 21 -2 36 -10 35 -18 97 -19 127 -3 12 6 65 44 118 85 91 70 118 86 103 61 -4 -7 -3 -8 5 -4 6 4 9 11 6 16 -3 5 59 57 138 117 79 59 217 163 306 231 92 70 166 120 173 116 6 -4 8 -3 5 4 -9 14 139 125 155 116 6 -4 8 -3 5 3 -4 6 20 31 51 56 l59 46 547 2 c301 1 542 5 535 9 -7 5 7 11 32 16 24 4 46 8 49 9 19 4 133 69 158 90 18 15 36 24 41 21 5 -3 15 2 22 12 13 16 12 16 -6 2 -20 -14 -20 -14 -1 7 10 13 22 20 27 18 4 -3 11 0 15 6 4 8 3 9 -4 5 -20 -12 -13 2 24 50 49 65 72 114 93 197 10 38 20 65 22 59 2 -7 3 303 1 688 l-2 700 158 0 c144 0 160 -2 176 -19 10 -11 15 -25 11 -31 -3 -6 -3 -9 2 -8 10 3 94 -58 88 -64 -2 -2 4 -4 13 -5 9 0 45 -7 80 -14 114 -23 233 22 288 108 15 24 30 43 33 43 8 0 15 53 15 125 0 67 -7 135 -13 129 -7 -6 -50 70 -44 79 2 4 -1 6 -9 5 -7 -2 -12 2 -11 8 1 7 -8 20 -20 30 -21 19 -21 19 -7 0 8 -11 11 -17 5 -15 -5 3 -30 15 -55 26 -47 22 -173 46 -164 31 3 -4 -5 -8 -18 -8 -42 0 -123 -46 -165 -94 l-41 -46 -160 0 -161 0 -3 563 c-3 553 -3 563 -25 624 -13 34 -21 68 -20 75 2 7 2 9 -1 4 -2 -5 -18 13 -34 38 -16 26 -26 51 -23 57 4 5 2 8 -3 7 -12 -4 -118 103 -114 115 1 5 -2 6 -7 3 -5 -4 -31 7 -58 24 -26 16 -72 38 -100 48 -29 10 -50 22 -47 25 4 4 -712 7 -1591 7 -879 0 -1595 -3 -1591 -7z m2867 -879 c88 -41 157 -121 144 -167 -4 -15 -3 -18 3 -9 7 11 11 8 15 -10 8 -30 9 -1286 1 -1315 -4 -13 -10 -20 -15 -17 -5 3 -6 -2 -3 -10 19 -51 -132 -188 -177 -160 -7 4 -9 3 -6 -3 4 -6 -7 -13 -24 -17 -42 -8 -2387 -8 -2429 0 -23 5 -28 9 -18 16 8 6 4 7 -12 3 -36 -8 -113 44 -150 101 -16 26 -34 70 -40 99 -7 35 -10 256 -8 676 3 612 3 625 24 670 39 83 112 140 207 159 23 4 582 7 1242 7 1197 -2 1200 -2 1246 -23z"/> <path d="M2058 3307 c-26 -8 -66 -27 -90 -43 -24 -15 -46 -27 -50 -26 -5 1 -7 -1 -6 -5 3 -13 -45 -102 -52 -98 -4 3 -7 -45 -7 -105 1 -60 3 -107 5 -105 3 2 14 -12 24 -33 28 -53 72 -95 126 -123 68 -35 196 -35 266 1 100 51 151 134 150 245 0 84 -7 162 -12 145 -2 -6 -13 2 -23 19 -24 39 -24 47 -1 30 14 -12 14 -10 -2 8 -10 12 -23 21 -30 20 -6 -1 -10 4 -8 11 1 6 -1 11 -5 10 -5 -1 -33 10 -63 25 -67 33 -156 42 -222 24z"/> <path d="M3810 3311 c-84 -20 -141 -60 -185 -130 -23 -38 -29 -59 -33 -133 -5 -83 -3 -91 27 -152 77 -157 269 -203 430 -104 20 13 41 23 46 23 6 1 9 6 7 13 -1 7 10 31 25 55 21 33 27 58 31 117 5 89 -7 140 -49 203 -53 80 -195 132 -299 108z"/> </g> </svg>