<?xml version="1.0" standalone="no"?> <!DOCTYPE svg PUBLIC "-//W3C//DTD SVG 20010904//EN"  "http://www.w3.org/TR/2001/REC-SVG-20010904/DTD/svg10.dtd"> <svg version="1.0" xmlns="http://www.w3.org/2000/svg"  width="284.000000pt" height="247.000000pt" viewBox="0 0 284.000000 247.000000"  preserveAspectRatio="xMidYMid meet">  <g transform="translate(0.000000,247.000000) scale(0.100000,-0.100000)" fill="#fff" stroke="none"> <path d="M745 1840 c-56 -26 -80 -49 -104 -97 -21 -41 -21 -54 -21 -558 0 -443 2 -521 15 -553 20 -47 50 -79 100 -105 35 -19 61 -22 225 -27 l185 -5 3 -139 c1 -82 7 -145 14 -153 27 -32 56 -14 350 214 l108 83 238 0 c280 0 319 7 375 69 20 22 40 57 46 78 15 52 15 1014 0 1066 -13 49 -63 105 -114 128 -37 17 -83 19 -710 19 -639 0 -672 -1 -710 -20z m1111 -473 c37 -43 26 -104 -23 -126 -16 -7 -141 -11 -383 -11 l-358 0 -31 26 c-48 40 -36 110 23 134 11 5 185 8 384 7 l364 -2 24 -28z m-328 -303 c13 -9 27 -27 32 -40 11 -29 -5 -81 -30 -94 -11 -6 -113 -10 -235 -10 l-216 0 -24 25 c-16 15 -25 36 -25 55 0 19 9 40 25 55 24 25 24 25 237 25 180 0 217 -3 236 -16z"/> </g> </svg> 