<svg width="705" height="128" xmlns="http://www.w3.org/2000/svg" xmlns:xlink="http://www.w3.org/1999/xlink"><g><path id="m" stroke="null" fill="#ff8000" d="m4.20558,2.25356c2.50111,-0.70525 5.20603,0.18921 6.65111,2.21895l30.6433,42.65896l30.6433,-42.67616c1.44509,-2.01254 4.15,-2.9242 6.65111,-2.21895s4.20558,2.8554 4.20558,5.28077l0,66.05259c0,3.04461 -2.64933,5.50438 -5.92857,5.50438s-5.92857,-2.45977 -5.92857,-5.50438l0,-47.87093l-24.71473,34.41959c-1.09308,1.53091 -2.94576,2.44257 -4.92812,2.44257s-3.83504,-0.91166 -4.92812,-2.44257l-24.71473,-34.41959l0,47.87093c0,3.04461 -2.64933,5.50438 -5.92857,5.50438s-5.92857,-2.45977 -5.92857,-5.50438l0,-66.05259c0,-2.42537 1.70447,-4.55832 4.20558,-5.26357z"/><path id="e1" stroke="#ffffff" stroke-width="0" fill="#ff8000" d="m165.19984,2.95615c8.53077,1.87866 16.23394,7.64421 19.60805,14.70539c4.71103,9.71721 4.64736,23.70999 -0.12733,33.29765c-2.0372,4.01645 -7.32119,9.71721 -10.94996,11.59588c-6.30259,3.30385 -8.6581,3.75732 -23.23682,4.14601c-12.98714,0.38869 -14.2604,0.51825 -17.06156,1.87866c-1.65524,0.84216 -3.81976,2.59126 -4.90202,3.88689c-1.84621,2.33214 -3.81976,7.06118 -3.81976,9.32852c0,1.36041 -1.5279,1.48997 -6.49358,0.45347c-10.63164,-2.26734 -19.67171,-10.36503 -23.55514,-21.05396c-1.14592,-3.30385 -1.40058,-5.57121 -1.59157,-16.77839c-0.31832,-14.51103 0.38198,-19.88789 3.43777,-26.23647c3.50144,-7.3203 11.58659,-13.34497 20.49933,-15.28841c5.72963,-1.23085 42.52657,-1.16607 48.19253,0.06478l0.00001,-0.00001l0.00003,-0.00001l0.00001,0z"/><path id="s1" stroke="null" fill="#ff8000" d="m218.36608,15.10557c-5.14718,1.53623 -7.91283,3.89417 -8.68108,7.03809c-0.61459,2.51871 -0.17925,4.14426 0.51215,5.25177c0.71702,1.12538 2.02302,2.21503 4.27652,3.32255c4.91671,2.39366 12.36861,3.94776 21.74109,5.80553c0.25608,0.05359 0.48655,0.10718 0.74262,0.14291c8.37377,1.66127 18.43768,3.67981 25.83834,7.27031c4.02044,1.94709 7.65676,4.55511 9.88464,8.05629c2.25349,3.53691 2.76565,7.50253 1.69012,11.84328c-1.86937,7.59185 -9.03958,12.80789 -18.38646,15.59455c-9.06519,2.7152 -20.25583,3.19751 -31.67694,1.94709l-0.05122,0l0,0c-6.14589,-0.69666 -16.05614,-3.0546 -22.4325,-4.57297c-1.22918,-0.30367 -2.35593,-0.55376 -3.27781,-0.76812c-4.25091,-1.0182 -6.55562,-4.25143 -5.14718,-7.25245s6.06907,-4.6087 10.37119,-3.62622c1.25479,0.28581 2.61201,0.60735 4.07166,0.96461c6.5044,1.53623 14.44284,3.42973 19.05226,3.94776c9.4237,1.0182 17.28532,0.44658 22.66297,-1.16111c5.14718,-1.53623 7.88723,-3.89417 8.68108,-7.03809c0.61459,-2.51871 0.17925,-4.14426 -0.51215,-5.25177c-0.71702,-1.12538 -2.02302,-2.21503 -4.27652,-3.32255c-4.91671,-2.39366 -12.36861,-3.94776 -21.74109,-5.80553c-0.25608,-0.05359 -0.48655,-0.10718 -0.74262,-0.14291c-8.37377,-1.66127 -18.43768,-3.67981 -25.83834,-7.27031c-4.02044,-1.94709 -7.65676,-4.55511 -9.88464,-8.05629c-2.25349,-3.53691 -2.76565,-7.50253 -1.69012,-11.84328l8.06648,0.98247l-8.09209,-0.96461c1.86937,-7.59185 9.03958,-12.80789 18.38646,-15.59455c9.06519,-2.7152 20.25583,-3.19751 31.67694,-1.94709c3.32902,0.35726 13.41853,1.71486 17.05485,2.39366c4.37895,0.80384 6.96534,3.94776 5.81299,7.00236s-5.65935,4.85878 -10.03828,4.05494c-2.86808,-0.5359 -12.31739,-1.82204 -15.39034,-2.14358l1.25479,-5.6269l-1.25479,5.6269c-9.44931,-1.03606 -17.28532,-0.44658 -22.68858,1.16111l0.02561,-0.01786l-0.00002,0.00001z"/><path id="s2" stroke="null" fill="#ff8000" d="m334.17745,15.10557c5.03078,1.53623 7.73389,3.89417 8.48476,7.03809c0.60069,2.5187 0.1752,4.14425 -0.50058,5.25177c-0.70081,1.12538 -1.97728,2.21503 -4.17981,3.32255c-4.80552,2.39366 -12.08891,3.94776 -21.24942,5.80553c-0.25029,0.05359 -0.47554,0.10718 -0.72583,0.1429c-8.18441,1.66128 -18.02072,3.67981 -25.25403,7.27031c-3.92951,1.94709 -7.4836,4.55511 -9.66111,8.05629c-2.20253,3.53691 -2.7031,7.50253 -1.6519,11.84328c1.82711,7.59185 8.83516,12.80789 17.97066,15.59455c8.86018,2.7152 19.79776,3.1975 30.96059,1.94708l0.05006,0l0,0c6.0069,-0.69666 15.69304,-3.0546 21.92521,-4.57297c1.20138,-0.30367 2.30265,-0.55376 3.20367,-0.76811c4.15478,-1.01821 6.40737,-4.25144 5.03078,-7.25245s-5.93182,-4.6087 -10.13665,-3.62622c-1.22641,0.28581 -2.55293,0.60734 -3.97957,0.96461c-6.35731,1.53623 -14.11624,3.42973 -18.62141,3.94776c-9.21058,1.0182 -16.89442,0.44658 -22.15047,-1.16111c-5.03078,-1.53623 -7.70886,-3.89417 -8.48475,-7.03809c-0.60069,-2.5187 -0.1752,-4.14425 0.50058,-5.25177c0.7008,-1.12538 1.97727,-2.21503 4.1798,-3.32255c4.80552,-2.39366 12.08891,-3.94776 21.24943,-5.80553c0.25028,-0.05359 0.47554,-0.10718 0.72583,-0.1429c8.18441,-1.66128 18.02072,-3.67982 25.25403,-7.27031c3.92951,-1.94709 7.48359,-4.55511 9.66111,-8.05629c2.20253,-3.53691 2.70311,-7.50253 1.6519,-11.84328l-7.88406,0.98247l7.90909,-0.96461c-1.8271,-7.59185 -8.83516,-12.80789 -17.97065,-15.59455c-8.86018,-2.7152 -19.79776,-3.1975 -30.96059,-1.94708c-3.25375,0.35726 -13.11508,1.71486 -16.66916,2.39366c-4.27992,0.80385 -6.80784,3.94776 -5.68153,7.00237s5.53136,4.85878 9.81128,4.05493c2.80322,-0.53589 12.03884,-1.82204 15.0423,-2.14358l-1.22641,-5.62689l1.22641,5.62689c9.23563,-1.03606 16.89443,-0.44657 22.17549,1.16111l-0.02503,-0.01786l-0.00002,0z"/><path id="a" stroke="null" fill="#ff8000" d="m409.29632,5.56089c-1.04583,-2.151 -3.54301,-3.56088 -6.29632,-3.56088s-5.25049,1.4099 -6.29632,3.56088l-25.61213,52.05764l-8.53738,17.35254c-1.45136,2.94631 0.19209,6.32645 3.67108,7.55559s7.4702,-0.16268 8.92156,-3.109l6.78722,-13.79166l42.13195,0l6.78722,13.79166c1.45136,2.94631 5.44257,4.33814 8.92156,3.109s5.12242,-4.60927 3.67108,-7.55559l-8.53738,-17.35254l-25.61213,-52.05764l-0.00001,0zm9.07096,48.49675l-30.73456,0l15.36727,-31.23459l15.36727,31.23459l0.00001,0z"/><path id="g" stroke="null" fill="#ff8000" d="m489.62523,13.57143c16.32826,0 29.55341,12.94554 29.55341,28.92857s-13.22515,28.92857 -29.55341,28.92857c-14.29646,0 -26.22865,-9.9442 -28.96234,-23.14286l23.05166,0c3.26935,0 5.91068,-2.58549 5.91068,-5.78571s-2.64134,-5.78571 -5.91068,-5.78571l-26.59807,0c-4.76549,0 -9.16156,3.8692 -8.71826,9.14866c1.73626,20.79241 19.54219,37.13706 41.227,37.13706c22.84848,0 41.37477,-18.1346 41.37477,-40.5s-18.5263,-40.5 -41.37477,-40.5c-10.60229,0 -20.26256,3.90536 -27.57703,10.3058c-2.43816,2.13348 -2.64134,5.78571 -0.46178,8.17232s5.91068,2.58549 8.34884,0.45201c5.22726,-4.57433 12.1169,-7.35871 19.68996,-7.35871l0.00001,0z"/><path id="e2" stroke="#ffffff" stroke-width="0" fill="#ff8000" d="m556.95563,2.95615c-8.47676,1.87866 -16.13115,7.64421 -19.4839,14.70539c-4.6812,9.71721 -4.61795,23.70999 0.12652,33.29765c2.0243,4.01645 7.27483,9.71721 10.88062,11.59588c6.26268,3.30385 8.60328,3.75732 23.08969,4.14601c12.90492,0.38869 14.17011,0.51825 16.95353,1.87866c1.64476,0.84216 3.79557,2.59126 4.87098,3.88689c1.83452,2.33214 3.79557,7.06118 3.79557,9.32852c0,1.36041 1.51823,1.48997 6.45246,0.45347c10.56432,-2.26734 19.54716,-10.36503 23.40599,-21.05396c1.13867,-3.30385 1.39171,-5.57121 1.58149,-16.77839c0.3163,-14.51103 -0.37956,-19.88789 -3.41601,-26.23647c-3.47927,-7.3203 -11.51323,-13.34497 -20.36954,-15.28841c-5.69335,-1.23085 -42.25731,-1.16607 -47.8874,0.06478l-0.00001,-0.00001l0,-0.00001l-0.00001,0z"/><g id="50" stroke="black" stroke-width="2"><path id="5" fill="#ff8000" d="m606.92038,17.52972c1.56597,-2.24421 4.50619,-3.04695 7.00259,-1.88519l30.92311,14.39083c2.85072,1.32665 4.10486,4.70724 2.80645,7.56494s-4.65052,4.09465 -7.50124,2.768l-26.62286,-12.38961l-11.50146,16.55362l18.31227,8.52207c12.09544,5.62891 17.43648,20.02594 11.92744,32.151s-19.78485,17.3929 -31.88029,11.76399l-13.44833,-6.25851c-6.34568,-2.95312 -10.50792,-9.25178 -10.7604,-16.25406l-0.05881,-1.63121c-0.11333,-3.14306 2.32587,-5.76325 5.4501,-5.85448s5.74706,2.38115 5.86039,5.52422l0.05881,1.63121c0.09755,2.70543 1.69662,5.11211 4.1447,6.25138l13.44833,6.25851c6.4101,2.9831 13.95823,0.1978 16.8778,-6.22799s0.09558,-14.03801 -6.31453,-17.02111l-24.48079,-11.39274c-1.53005,-0.71204 -2.67147,-2.06471 -3.11843,-3.70053s-0.14538,-3.37313 0.81063,-4.74722l18.06452,-26.01711l-0.00002,-0.00001l0.00001,0l0.00001,0z"/><ellipse fill="#ff8000" cx="611.95742" cy="20.15236" rx="3.84763" ry="3.89402" stroke-width="2"/><path id="0" fill="#ff8000" d="m646.24335,59.93912c7.04856,-15.51344 25.05545,-22.35552 40.23885,-15.28955s21.77226,25.35428 14.72369,40.86773l-10.20606,22.46291c-7.04856,15.51344 -25.05545,22.35552 -40.23885,15.28955s-21.77226,-25.35428 -14.72369,-40.86773l10.20606,-22.46291zm35.13582,-4.05809c-9.10317,-4.23638 -19.91736,-0.12732 -24.14331,9.17373l-10.20606,22.46291c-4.22595,9.30105 -0.26895,20.28425 8.83422,24.52063s19.91736,0.12732 24.14331,-9.17373l10.20606,-22.46291c4.22595,-9.30105 0.26895,-20.28425 -8.83422,-24.52063z"/></g></g></svg>